<?xml version="1.0"?>
<svg xmlns="http://www.w3.org/2000/svg" id="filled_outline" height="512px" viewBox="0 0 512 512" width="512px" data-name="filled outline" class=""><g><path d="m488 88v384a16 16 0 0 1 -16 16h-432a16 16 0 0 1 -16-16v-384z" fill="#e0edff" data-original="#E0EDFF" class=""/><path d="m24 88v-48a16 16 0 0 1 16-16h432a16 16 0 0 1 16 16v48z" fill="#e0edff" data-original="#E0EDFF" class=""/><g fill="#548aff"><path d="m216 224h32v32h-32z" data-original="#548AFF" class="active-path" style="fill:#7FA707" data-old_color="#548AFF"/><path d="m216 288h32v32h-32z" data-original="#548AFF" class="active-path" style="fill:#7FA707" data-old_color="#548AFF"/><path d="m216 352h32v32h-32z" data-original="#548AFF" class="active-path" style="fill:#7FA707" data-old_color="#548AFF"/><path d="m216 416h32v32h-32z" data-original="#548AFF" class="active-path" style="fill:#7FA707" data-old_color="#548AFF"/><path d="m64 104v344h112v-264h272v-80z" data-original="#548AFF" class="active-path" style="fill:#7FA707" data-old_color="#548AFF"/></g><path d="m472 16h-432a24.0275 24.0275 0 0 0 -24 24v432a24.0275 24.0275 0 0 0 24 24h432a24.0275 24.0275 0 0 0 24-24v-432a24.0275 24.0275 0 0 0 -24-24zm8 456a8.00917 8.00917 0 0 1 -8 8h-432a8.00917 8.00917 0 0 1 -8-8v-432a8.00917 8.00917 0 0 1 8-8h432a8.00917 8.00917 0 0 1 8 8z" data-original="#000000" class="" style="fill:#000000"/><circle cx="56" cy="56" r="8" data-original="#000000" class="" style="fill:#000000"/><circle cx="80" cy="56" r="8" data-original="#000000" class="" style="fill:#000000"/><circle cx="104" cy="56" r="8" data-original="#000000" class="" style="fill:#000000"/><path d="m248 216h-32a7.99977 7.99977 0 0 0 -8 8v32a7.99977 7.99977 0 0 0 8 8h32a7.99977 7.99977 0 0 0 8-8v-32a7.99977 7.99977 0 0 0 -8-8zm-8 32h-16v-16h16z" data-original="#000000" class="" style="fill:#000000"/><path d="m280 232h24v16h-24z" data-original="#000000" class="" style="fill:#000000"/><path d="m320 232h112v16h-112z" data-original="#000000" class="" style="fill:#000000"/><path d="m248 280h-32a7.99977 7.99977 0 0 0 -8 8v32a7.99977 7.99977 0 0 0 8 8h32a7.99977 7.99977 0 0 0 8-8v-32a7.99977 7.99977 0 0 0 -8-8zm-8 32h-16v-16h16z" data-original="#000000" class="" style="fill:#000000"/><path d="m280 296h24v16h-24z" data-original="#000000" class="" style="fill:#000000"/><path d="m320 296h112v16h-112z" data-original="#000000" class="" style="fill:#000000"/><path d="m248 344h-32a7.99977 7.99977 0 0 0 -8 8v32a7.99977 7.99977 0 0 0 8 8h32a7.99977 7.99977 0 0 0 8-8v-32a7.99977 7.99977 0 0 0 -8-8zm-8 32h-16v-16h16z" data-original="#000000" class="" style="fill:#000000"/><path d="m280 360h24v16h-24z" data-original="#000000" class="" style="fill:#000000"/><path d="m320 360h112v16h-112z" data-original="#000000" class="" style="fill:#000000"/><path d="m248 408h-32a7.99977 7.99977 0 0 0 -8 8v32a7.99977 7.99977 0 0 0 8 8h32a7.99977 7.99977 0 0 0 8-8v-32a7.99977 7.99977 0 0 0 -8-8zm-8 32h-16v-16h16z" data-original="#000000" class="" style="fill:#000000"/><path d="m280 424h24v16h-24z" data-original="#000000" class="" style="fill:#000000"/><path d="m320 424h112v16h-112z" data-original="#000000" class="" style="fill:#000000"/><path d="m448 96h-384a7.99977 7.99977 0 0 0 -8 8v344a7.99977 7.99977 0 0 0 8 8h112a7.99977 7.99977 0 0 0 8-8v-256h264a7.99977 7.99977 0 0 0 8-8v-80a7.99977 7.99977 0 0 0 -8-8zm-280 344h-96v-248h96zm272-264h-368v-64h368z" data-original="#000000" class="" style="fill:#000000"/></g> </svg>
